<svg xmlns="http://www.w3.org/2000/svg" xmlns:xlink="http://www.w3.org/1999/xlink" viewBox="0,0,256,256" width="48px" height="48px"><g fill="none" fill-rule="nonzero" stroke="none" stroke-width="1" stroke-linecap="butt" stroke-linejoin="none" stroke-miterlimit="10" stroke-dasharray="" stroke-dashoffset="0" font-family="none" font-weight="none" font-size="none" text-anchor="none" style="mix-blend-mode: normal"><path transform="scale(5.33333,5.33333)" d="M32.597,42.037c-2.607,1.245 -5.515,1.963 -8.597,1.963c-11.046,0 -20,-8.954 -20,-20c0,-11.046 8.954,-20 20,-20c11.046,0 20,8.954 20,20c0,6.88 -3.476,12.947 -8.766,16.546l-15.234,-22.546l-0.007,0.031l-0.249,-0.37c-0.368,-0.547 -1.055,-0.786 -1.682,-0.596c-0.631,0.194 -1.062,0.776 -1.062,1.435v13c0,0.828 0.672,1.5 1.5,1.5c0.828,0 1.5,-0.672 1.5,-1.5v-8.026z" id="strokeMainSVG" fill="#dddddd" stroke="#dddddd" stroke-linejoin="round"></path><g transform="scale(5.33333,5.33333)" fill="#000000" stroke="none" stroke-linejoin="miter"><path d="M20,23.474v8.026c0,0.828 -0.672,1.5 -1.5,1.5c-0.828,0 -1.5,-0.672 -1.5,-1.5v-13c0,-0.659 0.431,-1.241 1.062,-1.435c0.627,-0.19 1.314,0.049 1.682,0.596l0.249,0.37l0.007,-0.031l15.234,22.546c5.29,-3.599 8.766,-9.666 8.766,-16.546c0,-11.046 -8.954,-20 -20,-20c-11.046,0 -20,8.954 -20,20c0,11.046 8.954,20 20,20c3.082,0 5.99,-0.718 8.597,-1.963zM28,16.5c0,-0.828 0.672,-1.5 1.5,-1.5c0.828,0 1.5,0.672 1.5,1.5v12.79l-3,-4.304z"></path></g></g></svg>